<?xml version="1.0" encoding="utf-8"?>
<!-- Generator: Adobe Illustrator 26.3.0, SVG Export Plug-In . SVG Version: 6.00 Build 0)  -->
<svg version="1.1" id="Capa_1" xmlns="http://www.w3.org/2000/svg" xmlns:xlink="http://www.w3.org/1999/xlink" x="0px" y="0px"
	 viewBox="0 0 500 500" style="enable-background:new 0 0 500 500;" xml:space="preserve">
<style type="text/css">
	.st0{fill:#F5CB5C;}
</style>
<g>
	<path class="st0" d="M489.01,101.78c0-4.34-0.33-8.73-1.03-13.01c-3.11-18.92-11.58-35.09-25.63-48.19
		c-16.01-14.91-35.01-22.7-56.91-22.75c-51.67-0.12-103.33-0.04-155-0.04c-51.75,0-103.5,0.01-155.25-0.02
		c-5.83,0-11.6,0.62-17.29,1.89c-38.63,8.59-66.1,42.69-66.12,82.29c-0.04,98.88-0.01,197.77-0.02,296.65
		c0,4.98,0.37,9.92,1.27,14.8c3.4,18.4,11.8,34.13,25.52,46.89c15.96,14.83,34.91,22.66,56.69,22.69
		c103.41,0.13,206.83,0.06,310.25,0.06c5.75,0,11.43-0.64,17.04-1.88c16.46-3.63,30.68-11.39,42.43-23.5
		c15.71-16.2,24-35.67,24.03-58.2C489.14,300.23,489.07,201.01,489.01,101.78z M294.3,350.8c-16.39,0.01-32.79-0.06-49.18,0.06
		c-2.99,0.02-4.36-1.05-5.2-3.91c-4.79-16.31-9.79-32.56-14.58-48.87c-0.69-2.33-1.7-3.03-4.14-3.01
		c-17.21,0.12-34.43,0.1-51.64,0.02c-2.1-0.01-2.92,0.6-3.48,2.68c-4.41,16.32-8.98,32.6-13.5,48.9c-1.05,3.79-1.5,4.14-5.5,4.14
		c-15.57,0-31.15,0-46.72,0c-4.79,0-5.78-1.28-4.41-5.75c21.67-70.94,43.35-141.89,65.03-212.83c1.23-4.02,1.66-4.33,6-4.33
		c9.93,0,19.85,0,29.78,0c10.11,0,20.22,0.08,30.33-0.05c2.96-0.04,4.41,1.12,5.28,3.92c22,71.13,44.07,142.24,66.12,213.35
		C299.83,349.48,298.86,350.8,294.3,350.8z M373.44,345.79c0,4.39-0.62,5.01-5.07,5.01c-15.02,0-30.05,0.01-45.07,0
		c-4.06,0-4.76-0.68-4.76-4.78c-0.01-51.26-0.01-102.53,0-153.79c0-3.98,0.85-4.81,4.81-4.81c15.12-0.01,30.23-0.01,45.35,0
		c3.91,0,4.75,0.88,4.75,4.86c0,25.59,0,51.17,0,76.76C373.44,294.62,373.44,320.21,373.44,345.79z M375.06,150.72
		c-1.3,4.52-2.63,9-5.66,12.8c-11.81,14.85-41.21,15.35-49.96-5.69c-6.6-15.87,0.82-37.12,23.96-38.74
		c13.45-0.94,24.38,5.25,29.09,16.02c1.11,2.54,1.72,5.3,2.56,7.96C375.06,145.62,375.06,148.17,375.06,150.72z"/>
	<path class="st0" d="M175.9,252.3c13.19,0,26.26,0,39.4,0c-6.86-24.05-13.69-47.96-20.36-71.33
		C188.72,204.28,182.32,228.25,175.9,252.3z"/>
</g>
</svg>
