<?xml version="1.0" encoding="utf-8"?>
<!-- Generator: Adobe Illustrator 26.3.0, SVG Export Plug-In . SVG Version: 6.00 Build 0)  -->
<svg version="1.1" id="Capa_1" xmlns="http://www.w3.org/2000/svg" xmlns:xlink="http://www.w3.org/1999/xlink" x="0px" y="0px"
	 viewBox="0 0 512 512" style="enable-background:new 0 0 512 512;" xml:space="preserve">
<style type="text/css">
	.st0{fill:#E8EDDF;}
</style>
<path class="st0" d="M512,256C512,114.6,397.4,0,256,0S0,114.6,0,256s114.6,256,256,256S512,397.4,512,256z M215,127
	c9.4-9.4,24.6-9.4,33.9,0s9.4,24.6,0,33.9l-71,71L392,232c13.3,0,24,10.7,24,24c0,13.3-10.7,24-24,24H177.9l71,71
	c9.4,9.4,9.4,24.6,0,33.9s-24.6,9.4-33.9,0L103,273c-9.4-9.4-9.4-24.6,0-33.9L215,127z"/>
</svg>
