<?xml version="1.0" encoding="utf-8"?>
<!-- Generator: Adobe Illustrator 26.3.0, SVG Export Plug-In . SVG Version: 6.00 Build 0)  -->
<svg version="1.1" id="Capa_1" xmlns="http://www.w3.org/2000/svg" xmlns:xlink="http://www.w3.org/1999/xlink" x="0px" y="0px"
	 viewBox="0 0 500 500" style="enable-background:new 0 0 500 500;" xml:space="preserve">
<style type="text/css">
	.st0{fill:#F5CB5C;}
</style>
<g>
	<path class="st0" d="M248.44,497c-0.7-0.64-1.62-0.78-2.47-1.03c-2.9-0.84-5.8-1.65-8.71-2.46c-4.36-1.21-8.72-2.41-13.08-3.62
		c-5.52-1.53-11.05-3.06-16.57-4.59c-4.36-1.21-8.72-2.42-13.08-3.63c-4.94-1.37-9.88-2.75-14.82-4.12
		c-5.09-1.41-10.18-2.81-15.26-4.22c-5.81-1.61-11.62-3.23-17.43-4.85c-5.09-1.41-10.17-2.82-15.26-4.24
		c-4.14-1.15-8.28-2.31-12.42-3.47c-3.99-1.11-7.98-2.23-12.1-3.38c-0.2-0.62-0.51-1.24-0.58-1.89c-0.23-2.09-0.35-4.2-0.54-6.3
		c-0.23-2.47-0.5-4.94-0.75-7.41c-0.02-0.22-0.07-0.45-0.09-0.67c-0.18-2.7-0.31-5.41-0.54-8.11c-0.2-2.4-0.5-4.79-0.76-7.18
		c-0.03-0.3-0.07-0.6-0.09-0.9c-0.17-2.48-0.23-4.97-0.55-7.43c-0.43-3.36-0.4-6.77-0.92-10.11c-0.29-1.88-0.29-3.75-0.44-5.63
		c-0.16-1.95-0.47-3.88-0.72-5.82c-0.03-0.22-0.06-0.45-0.07-0.67c-0.18-2.7-0.31-5.41-0.54-8.11c-0.2-2.4-0.51-4.79-0.78-7.18
		c-0.02-0.22-0.05-0.45-0.07-0.68c-0.17-2.48-0.31-4.96-0.52-7.44c-0.24-2.7-0.57-5.38-0.81-8.08c-0.21-2.4-0.34-4.81-0.54-7.21
		c-0.15-1.8-0.23-3.61-0.54-5.39c-0.22-1.28-0.24-2.55-0.35-3.82c-0.22-2.7-0.51-5.39-0.77-8.09c-0.01-0.15-0.05-0.3-0.06-0.45
		c-0.18-2.48-0.31-4.96-0.53-7.43c-0.2-2.32-0.49-4.64-0.74-6.95c-0.03-0.3-0.09-0.6-0.11-0.9c-0.17-2.48-0.3-4.96-0.52-7.43
		c-0.24-2.7-0.58-5.38-0.82-8.08c-0.22-2.4-0.33-4.81-0.54-7.21s-0.48-4.79-0.73-7.18c-0.02-0.15-0.06-0.3-0.07-0.45
		c-0.18-2.4-0.32-4.81-0.53-7.21s-0.48-4.79-0.72-7.19c-0.04-0.37-0.11-0.75-0.14-1.12c-0.18-2.48-0.23-4.97-0.54-7.43
		c-0.43-3.36-0.42-6.77-0.92-10.11c-0.28-1.88-0.29-3.75-0.44-5.63c-0.18-2.32-0.5-4.63-0.76-6.95c-0.02-0.15-0.03-0.3-0.04-0.45
		c-0.17-2.55-0.31-5.11-0.53-7.66c-0.19-2.17-0.47-4.34-0.72-6.5c-0.03-0.3-0.13-0.6-0.11-0.9c0.15-2.5-0.38-4.96-0.54-7.43
		c-0.17-2.7-0.56-5.39-0.8-8.08c-0.22-2.4-0.33-4.81-0.54-7.21c-0.21-2.4-0.48-4.79-0.73-7.18c-0.02-0.15-0.07-0.3-0.08-0.45
		c-0.18-2.4-0.32-4.81-0.54-7.21c-0.22-2.47-0.51-4.94-0.77-7.41c-0.03-0.3-0.07-0.6-0.09-0.9c-0.17-2.48-0.23-4.97-0.54-7.43
		c-0.43-3.37-0.42-6.77-0.92-10.12c-0.28-1.88-0.3-3.75-0.45-5.63c-0.18-2.32-0.53-4.63-0.75-6.95c-0.22-2.25-0.36-4.5-0.55-6.75
		c-0.1-1.2-0.24-2.39-0.36-3.59c-0.02-0.15-0.04-0.3-0.06-0.45c-0.17-2.4-0.32-4.81-0.53-7.21c-0.19-2.17-0.46-4.34-0.7-6.51
		c-0.04-0.37-0.11-0.75-0.14-1.12c-0.18-2.48-0.3-4.96-0.52-7.44c-0.24-2.7-0.58-5.38-0.82-8.08c-0.22-2.4-0.28-4.81-0.56-7.21
		c-0.2-1.72-0.46-3.44-0.42-5.17c0.01-0.52,0.05-1.04,0.08-1.67c0.45-0.12,0.86-0.3,1.28-0.33c0.68-0.06,1.36-0.02,2.04-0.02
		c114.27,0,228.54,0,342.8,0.01c0.96,0,1.95-0.16,2.8,0.16c0.56,0.6,0.43,1.23,0.38,1.81c-0.1,1.2-0.26,2.39-0.38,3.59
		c-0.27,2.54-0.53,5.09-0.8,7.63c-0.02,0.23-0.05,0.45-0.06,0.68c-0.17,2.48-0.31,4.96-0.53,7.44c-0.21,2.32-0.51,4.63-0.77,6.95
		c-0.01,0.08-0.02,0.15-0.03,0.22c-0.18,2.63-0.34,5.26-0.55,7.89c-0.15,1.95-0.36,3.9-0.55,5.84c-0.1,1.05-0.22,2.09-0.32,3.14
		c-0.27,2.84-0.54,5.69-0.8,8.54c-0.01,0.15-0.05,0.3-0.06,0.45c-0.18,2.48-0.32,4.96-0.53,7.43c-0.2,2.32-0.49,4.64-0.74,6.95
		c-0.02,0.15-0.06,0.3-0.07,0.45c-0.18,2.4-0.22,4.83-0.57,7.2c-0.41,2.84-0.32,5.71-0.75,8.54c-0.37,2.37-0.37,4.8-0.59,7.2
		c-0.22,2.47-0.5,4.94-0.75,7.41c-0.02,0.15-0.06,0.3-0.07,0.45c-0.18,2.4-0.33,4.81-0.54,7.21c-0.21,2.4-0.47,4.79-0.72,7.18
		c-0.03,0.3-0.1,0.6-0.12,0.9c-0.18,2.48-0.16,4.99-0.58,7.43c-0.44,2.54-0.27,5.11-0.71,7.65c-0.42,2.44-0.38,4.95-0.59,7.42
		s-0.48,4.94-0.72,7.41c-0.02,0.22-0.09,0.44-0.11,0.67c-0.18,2.48-0.33,4.96-0.53,7.43c-0.16,1.95-0.36,3.9-0.55,5.84
		c-0.1,1.05-0.22,2.09-0.32,3.14c-0.25,2.47-0.49,4.94-0.74,7.41c-0.03,0.3-0.09,0.6-0.11,0.9c-0.18,2.63-0.15,5.29-0.58,7.88
		c-0.45,2.69-0.25,5.41-0.73,8.1c-0.41,2.29-0.37,4.65-0.58,6.97c-0.22,2.4-0.5,4.79-0.76,7.18c-0.02,0.23-0.06,0.45-0.07,0.68
		c-0.05,1.66-0.22,3.3-0.42,4.95c-0.31,2.46-0.34,4.96-0.56,7.43c-0.23,2.55-0.56,5.08-0.79,7.63c-0.22,2.47-0.37,4.95-0.56,7.43
		c-0.06,0.75-0.15,1.5-0.22,2.24c-0.08,0.82-0.14,1.65-0.22,2.47c-0.11,1.12-0.23,2.24-0.34,3.36c-0.02,0.23-0.06,0.45-0.08,0.67
		c-0.17,2.33-0.3,4.66-0.52,6.98c-0.21,2.32-0.51,4.64-0.76,6.95c-0.02,0.22-0.06,0.45-0.06,0.68c-0.02,3.25-0.39,6.46-0.88,9.67
		c-0.05,0.3-0.04,0.6-0.04,0.9c-0.03,2.94-0.38,5.86-0.83,8.76c-0.03,0.22-0.04,0.45-0.06,0.68c-0.18,2.63-0.31,5.26-0.54,7.89
		c-0.21,2.47-0.52,4.94-0.79,7.4c-0.02,0.22-0.04,0.45-0.05,0.68c-0.11,3.16-0.5,6.3-0.86,9.44c-0.28,2.39-0.22,4.83-0.58,7.2
		c-0.42,2.76-0.28,5.56-0.73,8.32c-0.35,2.15-0.39,4.35-0.59,6.52c-0.24,2.62-0.51,5.24-0.76,7.86c-0.01,0.15-0.05,0.3-0.07,0.45
		c-0.18,2.48-0.33,4.96-0.54,7.43c-0.21,2.47-0.49,4.94-0.74,7.41c-0.02,0.22-0.08,0.45-0.09,0.67c-0.18,2.48-0.32,4.96-0.54,7.44
		c-0.16,1.87-0.41,3.73-0.61,5.51c-0.66,0.77-1.53,0.84-2.31,1.06c-6.9,1.93-13.8,3.84-20.71,5.73c-6.47,1.78-12.95,3.52-19.42,5.31
		c-7.05,1.95-14.08,3.96-21.13,5.92c-5.38,1.49-10.77,2.94-16.14,4.42c-4.14,1.14-8.27,2.33-12.41,3.48
		c-5.52,1.53-11.05,3.05-16.57,4.58c-4.29,1.19-8.57,2.38-12.86,3.57c-4,1.11-8,2.2-11.99,3.31c-2.18,0.6-4.37,1.18-6.54,1.82
		c-0.71,0.21-1.37,0.57-2.06,0.87C249.95,497,249.19,497,248.44,497z M160.43,396.03c2.87,0.87,5.67,1.73,8.49,2.55
		c1.81,0.52,3.64,0.95,5.46,1.45c4.36,1.2,8.71,2.43,13.07,3.63c4.21,1.16,8.43,2.3,12.64,3.46c2.25,0.62,4.5,1.27,6.75,1.9
		c4.21,1.17,8.43,2.33,12.64,3.5c5.01,1.4,10.02,2.81,15.03,4.2c4.5,1.26,9.02,2.47,13.51,3.78c1.21,0.35,2.32,0.38,3.54,0.03
		c3.91-1.14,7.84-2.19,11.77-3.27c4.72-1.3,9.45-2.58,14.18-3.89c6.68-1.85,13.36-3.73,20.05-5.58c5.81-1.61,11.63-3.19,17.45-4.8
		c6.98-1.92,13.96-3.84,20.93-5.79c1.14-0.32,2.36-0.52,3.29-1.23c0.42-0.95,0.24-1.88,0.31-2.77c0.06-0.75,0.05-1.51,0.13-2.26
		c0.24-2.39,0.54-4.78,0.75-7.18c0.22-2.55,0.22-5.13,0.58-7.65c0.24-1.65,0.28-3.3,0.44-4.95c0.26-2.54,0.56-5.08,0.78-7.63
		c0.22-2.47,0.36-4.96,0.53-7.43c0.01-0.15,0.04-0.3,0.06-0.45c0.26-2.39,0.55-4.78,0.76-7.18c0.22-2.55,0.36-5.11,0.54-7.66
		c0.01-0.15,0.03-0.3,0.05-0.45c0.26-2.32,0.55-4.63,0.76-6.95c0.22-2.47,0.36-4.96,0.53-7.44c0.01-0.15,0.01-0.31,0.04-0.45
		c0.62-2.5,0.37-5.09,0.76-7.63c0.38-2.45,0.39-4.95,0.56-7.43c0.02-0.23,0.06-0.45,0.08-0.67c0.26-2.47,0.54-4.93,0.76-7.4
		s0.36-4.96,0.53-7.43c0.01-0.15,0.04-0.3,0.06-0.45c0.26-2.47,0.54-4.93,0.76-7.4c0.21-2.4,0.36-4.81,0.54-7.21
		c0.01-0.15,0.06-0.3,0.07-0.45c0.26-2.62,0.54-5.24,0.77-7.86c0.21-2.4,0.36-4.8,0.54-7.21c0.01-0.15,0.06-0.3,0.08-0.44
		c0.25-2.32,0.52-4.63,0.73-6.95c0.22-2.47,0.36-4.95,0.54-7.43c0.01-0.15,0.05-0.3,0.07-0.45c0.25-2.54,0.53-5.08,0.75-7.63
		c0.21-2.32,0.19-4.68,0.59-6.97c0.43-2.54,0.34-5.1,0.72-7.64c0.39-2.6,0.4-5.25,0.57-7.88c0.02-0.23,0.05-0.45,0.08-0.67
		c0.25-2.24,0.55-4.48,0.75-6.72c0.23-2.55,0.36-5.11,0.54-7.66c0.01-0.15,0.04-0.3,0.06-0.45c0.26-2.47,0.55-4.93,0.77-7.4
		c0.21-2.4,0.36-4.8,0.54-7.21c0.01-0.15,0.05-0.3,0.06-0.45c0.26-2.69,0.52-5.39,0.79-8.08c0.1-1.05,0.25-2.09,0.33-3.14
		c0.08-1.03,0.36-2.08-0.2-3.11c-1.07-0.27-2.13-0.16-3.18-0.16c-70.54,0-141.09,0.01-211.63,0.02c-0.3,0-0.6,0-0.91,0
		c-0.3,0-0.61-0.03-0.91,0.01c-0.43,0.06-0.84,0.18-1.26,0.27c-0.26,1.16-0.17,2.2,0.01,3.24c0.1,0.59,0.2,1.19,0.25,1.78
		c0.19,2.48,0.35,4.96,0.53,7.43c0.01,0.15,0.04,0.3,0.06,0.45c0.26,2.32,0.56,4.63,0.77,6.95c0.22,2.47,0.35,4.96,0.52,7.43
		c0.01,0.15,0.01,0.3,0.05,0.45c0.58,2.36,0.39,4.79,0.76,7.18c0.37,2.37,0.43,4.79,0.64,7.19c0.01,0.13,0.15,0.25,0.28,0.46
		c0.87,0.35,1.86,0.18,2.83,0.18c49.7,0.02,99.4,0.03,149.09,0.04c3.93,0,7.86,0,11.78,0c0.6,0,1.21-0.02,1.81,0.05
		c0.35,0.04,0.69,0.24,1,0.36c0.41,1.03,0.29,2,0.12,2.97c-0.09,0.52-0.21,1.04-0.25,1.56c-0.19,2.63-0.35,5.26-0.52,7.89
		c-0.01,0.23-0.05,0.45-0.07,0.67c-0.26,2.39-0.56,4.78-0.77,7.18c-0.22,2.55-0.36,5.11-0.53,7.66c-0.01,0.15-0.03,0.3-0.04,0.45
		c-0.26,2.32-0.56,4.63-0.77,6.95c-0.22,2.47-0.35,4.96-0.53,7.43c-0.05,0.76-0.14,1.51-1.08,2.12c-0.7,0-1.6,0-2.5,0
		c-36.4,0.01-72.81,0.02-109.21,0.03c-14.5,0-29,0-43.5,0c-0.68,0-1.36-0.01-2.04,0.02c-0.29,0.01-0.57,0.11-0.96,0.19
		c-0.03,0.42-0.1,0.78-0.06,1.13c0.25,2.47,0.55,4.93,0.76,7.4c0.22,2.55,0.36,5.11,0.54,7.66c0.01,0.15,0.05,0.3,0.07,0.45
		c0.11,1.05,0.23,2.09,0.33,3.14c0.06,0.6,0.06,1.21,0.12,1.81c0.1,1.12,0.23,2.24,0.34,3.36c0.04,0.45,0.03,0.91,0.08,1.36
		c0.26,2.32,0.58,4.63,0.79,6.95c0.23,2.62,0.35,5.26,0.52,7.89c0.04,0.68,0.09,1.36,0.89,1.99c0.77,0.01,1.74,0.05,2.71,0.05
		c48.11,0.01,96.22,0.02,144.34,0.03c0.76,0,1.51-0.02,2.27,0.01c0.43,0.02,0.86,0.12,1.22,0.17c0.46,0.86,0.3,1.6,0.18,2.34
		c-0.11,0.67-0.21,1.34-0.26,2.01c-0.19,2.4-0.35,4.81-0.52,7.21c-0.01,0.15-0.03,0.3-0.06,0.45c-0.47,2.67-0.5,5.39-0.79,8.08
		c-0.24,2.24-0.34,4.5-0.55,6.75c-0.24,2.54-0.57,5.08-0.79,7.63c-0.22,2.47-0.35,4.96-0.52,7.43c-0.01,0.15-0.03,0.3-0.05,0.45
		c-0.42,2.91-0.63,5.83-0.84,8.76c-0.13,1.79-0.38,3.57-0.61,5.57c-8.22,2.36-16.46,4.47-24.66,6.69c-8.22,2.23-16.43,4.45-24.4,6.6
		c-4.49-1.22-8.71-2.36-12.93-3.5c-4.15-1.12-8.3-2.23-12.45-3.35c-7.06-1.91-14.12-3.81-21.17-5.73c-0.71-0.19-1.5-0.27-2.17-1.1
		c-0.14-1.53-0.29-3.25-0.44-4.97c-0.03-0.38-0.05-0.75-0.08-1.13c-0.26-2.54-0.56-5.08-0.78-7.63c-0.22-2.47-0.36-4.96-0.53-7.43
		c-0.01-0.08-0.02-0.15-0.03-0.22c-0.43-3.13-0.79-6.27-0.85-9.44c-0.02-1.14-0.25-2.22-0.72-3.2c-1.89-0.26-36.4-0.42-41.77-0.2
		c-0.36,0.02-0.72,0.1-1.18,0.17c-0.04,0.45-0.18,0.84-0.08,1.16c0.36,1.18,0.31,2.39,0.35,3.59c0.02,0.45,0.04,0.91,0.08,1.35
		c0.26,2.54,0.56,5.08,0.79,7.63c0.22,2.47,0.35,4.96,0.53,7.43c0.01,0.15,0.04,0.3,0.06,0.45c0.26,2.32,0.56,4.63,0.77,6.95
		c0.22,2.47,0.36,4.95,0.53,7.43c0.01,0.15,0.03,0.3,0.05,0.45c0.27,2.54,0.56,5.08,0.79,7.63c0.22,2.47,0.36,4.96,0.53,7.43
		c0.01,0.15,0.04,0.3,0.06,0.45c0.26,2.54,0.56,5.08,0.78,7.63c0.23,2.55,0.38,5.1,0.58,7.66
		C160.22,395.56,160.31,395.7,160.43,396.03z"/>
	<path class="st0" d="M273.82,3.58c0.39,0.59,0.47,1.25,0.47,1.95c-0.01,5.28,0,10.57-0.01,15.85c0,0.51-0.14,1.01-0.21,1.45
		c-0.88,0.54-1.73,0.34-2.54,0.35c-8.38,0.02-16.76,0.01-25.14,0.01c-0.82,0-1.65,0-2.48,0c-0.67,1.08-0.41,2.1-0.28,3.13
		c0.82,0.5,1.67,0.32,2.47,0.32c7.17,0.01,14.35,0.01,21.52,0.01c1.59,0,3.17-0.01,4.76,0.01c0.51,0.01,1.03,0.1,1.63,0.17
		c0.11,0.49,0.23,0.91,0.28,1.34c0.05,0.45,0.02,0.9,0.02,1.36c0,12.98,0,25.97,0,38.95c0,0.6,0.03,1.21-0.04,1.81
		c-0.04,0.35-0.25,0.68-0.34,0.93c-0.89,0.51-1.74,0.34-2.55,0.34c-5.96,0.01-11.93,0.01-17.89,0.01c-9.97,0-19.93,0-29.9-0.01
		c-0.81,0-1.66,0.17-2.57-0.33c-0.07-0.27-0.22-0.63-0.22-0.98c-0.02-6.04-0.02-12.08-0.01-18.12c0-0.36,0.11-0.72,0.16-0.98
		c0.68-0.62,1.39-0.46,2.05-0.46c3.55-0.02,7.1-0.01,10.65-0.01c5.13,0,10.27,0,15.4,0c0.74,0,1.48-0.05,2.25-0.08
		c0.43-0.98,0.35-1.84,0.16-2.69c-0.72-0.59-1.51-0.38-2.23-0.38c-6.04-0.02-12.08-0.01-18.12-0.01c-2.64,0-5.29,0.01-7.93,0
		c-0.74,0-1.53,0.11-2.26-0.64c-0.04-0.45-0.13-1.04-0.13-1.63c-0.01-13.51,0-27.02,0-40.54c0-0.38,0.03-0.75,0.05-1.13
		C238.47,3.58,256.14,3.58,273.82,3.58z"/>
	<path class="st0" d="M337.72,3.58c0.02,6.04,0.04,12.08,0.05,18.12c0,0.36-0.1,0.73-0.16,1.21c-0.54,0.1-1.04,0.25-1.54,0.26
		c-2.42,0.03-4.83,0.01-7.25,0.01c-6.42,0-12.84,0-19.26,0c-0.74,0-1.49,0.04-2.29,0.07c-0.47,1.09-0.32,2.09-0.14,3.15
		c0.87,0.37,1.71,0.23,2.52,0.23c8.46,0.01,16.92,0,25.38,0.01c0.81,0,1.65-0.15,2.55,0.3c0.07,0.41,0.16,0.84,0.2,1.27
		c0.03,0.37,0.01,0.75,0.01,1.13c0,13.14,0,26.28-0.01,39.42c0,0.81,0.13,1.65-0.28,2.54c-0.42,0.08-0.85,0.18-1.28,0.23
		c-0.3,0.04-0.6,0.01-0.91,0.01c-16.09,0-32.18,0-48.26-0.01c-0.81,0-1.67,0.2-2.54-0.48c-0.07-0.38-0.25-0.88-0.25-1.38
		c-0.02-5.66-0.02-11.33,0-16.99c0-0.51,0.13-1.02,0.21-1.61c0.47-0.14,0.89-0.33,1.31-0.37c0.67-0.06,1.36-0.03,2.04-0.03
		c8.16,0,16.31,0,24.47-0.01c0.81,0,1.65,0.14,2.53-0.23c0.33-0.86,0.31-1.72,0.03-2.64c-0.8-0.44-1.65-0.28-2.46-0.28
		c-6.65-0.01-13.29-0.01-19.94-0.01c-1.89,0-3.78,0.01-5.66-0.01c-0.67-0.01-1.34-0.08-2.07-0.12c-0.18-0.5-0.39-0.9-0.45-1.32
		c-0.08-0.52-0.03-1.05-0.03-1.58c0-12.69,0-25.37,0-38.06c0-0.97-0.15-1.98,0.46-2.86C302.37,3.58,320.04,3.58,337.72,3.58z"/>
	<path class="st0" d="M210.37,3.58c0.38,0.69,0.43,1.43,0.43,2.19c-0.01,6.04,0,12.08-0.01,18.12c0,0.74,0.12,1.53-0.54,2.13
		c-0.77,0.39-1.61,0.23-2.43,0.23c-8.3,0.01-16.61,0.01-24.91,0.01c-0.82,0-1.65,0.03-2.36,0.04c-0.78,0.72-0.55,1.52-0.55,2.24
		c-0.02,5.21-0.02,10.42,0,15.63c0,1.12-0.13,2.26,0.14,3.35c0.69,0.58,1.48,0.37,2.21,0.37c6.42,0.02,12.83,0.01,19.25,0.01
		c2.19,0,4.38-0.01,6.57,0c0.67,0,1.34,0.07,2.09,0.1c0.18,0.46,0.35,0.86,0.5,1.26c0.03,0.07,0.01,0.15,0.01,0.22
		c-0.01,6.64-0.01,13.28-0.03,19.93c0,0.22-0.12,0.43-0.22,0.76c-0.36,0.12-0.77,0.39-1.18,0.39c-4.19-0.01-8.39-0.08-12.58-0.09
		c-4.12,0-8.23,0.07-12.35,0.08c-3.37,0.01-6.74-0.04-10.11-0.05c-3.29-0.01-6.59-0.02-9.88,0c-1.72,0.01-3.44,0.08-5.16,0.06
		c-0.58-0.01-1.16-0.23-1.8-0.37c-0.08-0.6-0.17-1.11-0.2-1.63c-0.03-0.53-0.01-1.06-0.01-1.58c0-20.15,0-40.31,0-60.46
		c0-0.98,0.06-1.96,0.09-2.94C175.02,3.58,192.7,3.58,210.37,3.58z"/>
</g>
</svg>
