<?xml version="1.0" encoding="utf-8"?>
<!-- Generator: Adobe Illustrator 26.3.0, SVG Export Plug-In . SVG Version: 6.00 Build 0)  -->
<svg version="1.1" id="Capa_1" xmlns="http://www.w3.org/2000/svg" xmlns:xlink="http://www.w3.org/1999/xlink" x="0px" y="0px"
	 viewBox="0 0 500 500" style="enable-background:new 0 0 500 500;" xml:space="preserve">
<style type="text/css">
	.st0{fill:#F5CB5C;}
</style>
<g>
	<path class="st0" d="M249.19,498.73c-0.55-0.68-1.37-0.78-2.14-0.99c-13.35-3.71-26.7-7.41-40.05-11.12
		c-25.85-7.18-51.7-14.36-77.55-21.53c-7.22-2-14.44-4.01-21.65-6.02c-0.38-0.11-0.76-0.24-1.25-0.39
		c-0.36-1.58-0.46-3.17-0.61-4.76c-0.47-5.06-0.92-10.12-1.37-15.18c-0.39-4.5-0.75-9-1.15-13.5s-0.84-8.99-1.25-13.49
		c-0.19-2.09-0.37-4.18-0.56-6.26c-0.64-7.15-1.29-14.29-1.91-21.44c-0.56-6.35-1.07-12.7-1.63-19.04
		c-0.56-6.26-1.18-12.52-1.74-18.79c-0.4-4.5-0.75-9-1.15-13.5c-0.39-4.42-0.83-8.83-1.23-13.25c-0.39-4.34-0.75-8.68-1.13-13.01
		c-0.41-4.66-0.85-9.31-1.27-13.97c-0.2-2.17-0.39-4.34-0.59-6.51c-0.63-7.07-1.27-14.13-1.89-21.2c-0.4-4.5-0.75-9-1.14-13.5
		c-0.39-4.42-0.83-8.83-1.23-13.25c-0.37-4.1-0.72-8.19-1.09-12.29c-0.45-4.98-0.9-9.96-1.34-14.94c-0.39-4.42-0.75-8.84-1.14-13.26
		c-0.41-4.58-0.84-9.15-1.26-13.73c-0.19-2.09-0.38-4.18-0.56-6.26c-0.55-6.35-1.06-12.7-1.63-19.04
		c-0.55-6.18-1.16-12.36-1.72-18.55c-0.41-4.5-0.75-9-1.15-13.5c-0.39-4.42-0.82-8.83-1.23-13.25c-0.36-3.93-0.71-7.87-1.05-11.81
		c-0.03-0.3,0.04-0.61,0.06-0.84c0.25-0.13,0.39-0.27,0.52-0.27c116.5-0.02,233-0.04,349.5-0.05c0.22,0,0.45,0.11,0.76,0.19
		c0.26,0.79,0.06,1.58,0.04,2.37c-0.03,0.72-0.09,1.45-0.16,2.17c-0.43,4.82-0.87,9.64-1.31,14.45c-0.42,4.58-0.85,9.15-1.26,13.73
		c-0.21,2.25-0.4,4.5-0.6,6.75c-0.62,6.91-1.25,13.81-1.86,20.72c-0.39,4.42-0.74,8.84-1.13,13.26c-0.4,4.5-0.83,8.99-1.25,13.49
		c-0.19,2.09-0.38,4.18-0.57,6.26c-0.64,7.15-1.29,14.29-1.91,21.44c-0.39,4.5-0.74,9-1.14,13.5c-0.39,4.42-0.84,8.83-1.24,13.25
		s-0.75,8.84-1.14,13.26c-0.41,4.58-0.84,9.15-1.27,13.73c-0.18,2.01-0.37,4.01-0.54,6.02c-0.55,6.35-1.07,12.7-1.63,19.04
		c-0.56,6.26-1.18,12.52-1.74,18.79c-0.4,4.5-0.75,9-1.15,13.5c-0.39,4.42-0.84,8.83-1.24,13.25c-0.38,4.18-0.73,8.35-1.1,12.53
		c-0.43,4.82-0.87,9.64-1.31,14.45c-0.2,2.25-0.4,4.5-0.6,6.75c-0.62,6.91-1.25,13.81-1.86,20.72c-0.4,4.5-0.75,9-1.15,13.5
		s-0.85,8.99-1.26,13.49c-0.4,4.42-0.75,8.84-1.14,13.26c-0.41,4.58-0.85,9.15-1.27,13.73c-0.24,2.65-0.44,5.3-0.67,7.96
		c-0.07,0.87-0.18,1.75-0.27,2.68c-0.61,0.23-1.12,0.46-1.64,0.61c-16.22,4.51-32.45,9.01-48.67,13.51
		c-30.12,8.36-60.24,16.71-90.36,25.07c-0.83,0.23-1.77,0.22-2.33,1.06C250.15,498.73,249.67,498.73,249.19,498.73z M249.81,376.72
		c-4.19-1.13-8.31-2.24-12.43-3.36c-11.35-3.07-22.71-6.13-34.06-9.21c-0.84-0.23-1.73-0.33-2.48-0.93
		c-0.35-3.88-0.71-7.73-1.05-11.58c-0.34-3.85-0.63-7.71-1.02-11.56c-0.39-3.83-0.56-7.68-1.16-11.59c-0.92-0.03-1.71-0.08-2.5-0.08
		c-7.58-0.01-15.17,0-22.75,0c-5.57,0-11.13-0.01-16.7,0.01c-0.61,0-1.3-0.23-1.9,0.54c0.05,0.91,0.07,1.95,0.16,2.99
		c0.48,5.54,0.98,11.08,1.47,16.62c0.18,2.01,0.37,4.01,0.55,6.02c0.42,4.5,0.84,8.99,1.24,13.49c0.39,4.42,0.74,8.84,1.13,13.26
		c0.43,4.9,0.89,9.8,1.35,14.69c0.04,0.46,0.18,0.92,0.27,1.39c0.78,0.23,1.47,0.44,2.17,0.63c6.05,1.69,12.11,3.37,18.16,5.05
		c22.59,6.27,45.18,12.53,67.76,18.83c1.3,0.36,2.48,0.35,3.78-0.01c7.75-2.19,15.52-4.31,23.29-6.46
		c20.88-5.79,41.76-11.58,62.64-17.38c0.76-0.21,1.5-0.48,2.19-0.7c0.1-0.4,0.18-0.63,0.2-0.86c0.33-3.53,0.64-7.07,0.96-10.6
		c0.64-7.15,1.28-14.29,1.92-21.44c0.65-7.31,1.3-14.62,1.96-21.92c0.64-7.23,1.29-14.46,1.93-21.68c0.64-7.23,1.3-14.45,1.93-21.68
		c0.56-6.35,1.08-12.69,1.63-19.04c0.19-2.25,0.43-4.5,0.63-6.74c0.28-3.13,0.56-6.26,0.82-9.4c0.04-0.45,0.2-0.96-0.41-1.5
		c-2.15-0.08-4.47-0.03-6.8-0.03c-2.26-0.01-4.52,0-6.78,0c-2.34,0-4.68,0-7.02,0s-4.68,0-7.02,0c-2.26,0-4.52,0-6.78,0
		c-2.34,0-4.68,0-7.02,0s-4.68,0-7.02,0s-4.68,0-7.02,0c-2.26,0-4.52,0-6.78,0c-2.34,0-4.68,0-7.02,0s-4.68,0-7.02,0
		c-2.26,0-4.52,0-6.78,0c-2.34,0-4.68,0-7.02,0s-4.68,0-7.02,0c-2.26,0-4.52,0.02-6.78,0.02c-2.34,0-4.68,0-7.02,0
		c-2.34,0-4.68,0-7.02,0c-2.34,0-4.68,0-7.02,0c-2.26,0-4.52,0-6.78,0c-2.34,0-4.68,0-7.02,0c-2.34,0-4.68,0-7.02,0
		c-2.26,0-4.52,0.02-6.78-0.01c-2.32-0.03-4.65,0.14-6.94-0.12c-0.14-0.33-0.29-0.55-0.31-0.77c-1.29-14.53-2.58-29.07-3.86-43.6
		c-0.01-0.07,0.02-0.16,0.06-0.22c0.04-0.07,0.12-0.11,0.33-0.29c0.72-0.02,1.6-0.05,2.47-0.05c20.57,0,41.14,0.02,61.72,0.02
		c33.4,0,66.8,0,100.2,0c0.65,0,1.29,0.02,1.94-0.01c0.46-0.02,0.92-0.1,1.48-0.17c1.3-14.25,2.58-28.37,3.86-42.49
		c0.02-0.24,0-0.48-0.01-0.72c0-0.08-0.02-0.17-0.05-0.24s-0.1-0.12-0.19-0.22c-0.2-0.05-0.43-0.15-0.65-0.15
		c-72.85,0.01-145.7,0.03-218.54,0.06c-0.14,0-0.28,0.13-0.56,0.26c-0.01,0.31-0.08,0.7-0.04,1.08c0.32,3.7,0.64,7.39,0.98,11.08
		c0.57,6.18,1.17,12.36,1.73,18.54c0.57,6.34,1.08,12.69,1.63,19.04c0.18,2.09,0.38,4.18,0.57,6.26c0.43,4.74,0.87,9.47,1.29,14.21
		c0.38,4.26,0.73,8.52,1.12,12.77c0.41,4.5,0.85,8.99,1.25,13.49c0.39,4.42,0.74,8.84,1.13,13.26c0.62,6.99,1.25,13.97,1.89,20.96
		c0.06,0.62,0.21,1.23,0.35,1.99c1.09,0,2.06,0,3.02,0c48.49,0.01,96.97,0.02,145.46,0.03c0.73,0,1.45-0.03,2.18,0.01
		c0.45,0.02,0.9,0.14,1.49,0.24c-0.26,3.09-0.49,6.05-0.76,9.01c-0.4,4.42-0.82,8.83-1.22,13.25c-0.39,4.42-0.75,8.84-1.14,13.26
		c-0.45,5.06-0.9,10.12-1.37,15.18c-0.18,1.99-0.41,3.98-0.63,6.06C282.49,367.89,266.25,372.28,249.81,376.72z"/>
	<path class="st0" d="M275.12,69.43c-2.24,0.33-19.35,0.32-21.49-0.01c-0.05-0.58-0.15-1.2-0.15-1.82
		c-0.01-4.68-0.01-9.36-0.01-14.04c0-15.89,0-31.79,0-47.68c0-0.88,0-1.75,0-2.74c0.5-0.1,0.87-0.24,1.25-0.24
		c7.02-0.01,14.04-0.01,21.06-0.01c0.32,0,0.63,0.08,1.1,0.14c4.63,7.58,9.29,15.2,14.03,22.95c0.68-0.36,0.92-0.96,1.23-1.46
		c3.95-6.47,7.89-12.95,11.84-19.42c0.42-0.68,0.86-1.35,1.26-1.97c1.86-0.31,19.67-0.39,23.17-0.12c0.08,0.41,0.2,0.86,0.25,1.32
		c0.04,0.48,0.01,0.97,0.01,1.45c0,20.33,0,40.66-0.01,61c0,0.87,0.18,1.77-0.24,2.73c-0.35,0.05-0.73,0.15-1.11,0.16
		c-6.01,0.21-18.6,0.08-20.65-0.22c-0.42-0.77-0.24-1.67-0.24-2.53c-0.01-9.04-0.01-18.07-0.01-27.11c0-0.8,0-1.6,0-2.48
		c-0.8,0.13-0.95,0.71-1.22,1.13c-4.26,6.56-8.5,13.13-12.76,19.7c-0.43,0.67-0.89,1.31-1.36,2c-0.96-0.37-1.21-1.2-1.63-1.85
		c-4.14-6.35-8.24-12.73-12.37-19.09c-0.43-0.66-0.9-1.3-1.32-1.92c-0.18,0.05-0.27,0.05-0.3,0.1c-0.05,0.06-0.08,0.14-0.09,0.22
		c-0.02,0.16-0.03,0.32-0.03,0.48c-0.01,10.25-0.02,20.49-0.03,30.74c0,0.08-0.03,0.16-0.05,0.23
		C275.21,69.14,275.18,69.22,275.12,69.43z"/>
	<path class="st0" d="M129.55,47.42c-0.11,2.5-0.04,4.91-0.06,7.33c-0.01,2.42,0,4.84,0,7.26c0,2.41,0,4.83,0,7.32
		c-0.49,0.13-0.87,0.31-1.24,0.32c-6.62,0.02-13.23,0.01-19.85,0.01c-0.31,0-0.62-0.09-1.04-0.16c-0.08-0.5-0.19-0.95-0.22-1.41
		c-0.04-0.56-0.01-1.13-0.01-1.69c0-20.09,0-40.18,0-60.27c0-0.96,0.03-1.92,0.05-2.96c0.48-0.11,0.86-0.26,1.23-0.26
		c6.62-0.02,13.23-0.02,19.85-0.01c0.31,0,0.62,0.09,0.89,0.14c0.53,0.71,0.33,1.46,0.34,2.17c0.02,5.65,0.01,11.3,0.01,16.94
		c0,0.79,0.05,1.59,0.07,2.27c0.18,0.15,0.23,0.21,0.3,0.26c0.06,0.04,0.14,0.09,0.21,0.09c0.64,0.03,1.29,0.06,1.93,0.06
		c5.73-0.01,11.45-0.02,17.18-0.05c0.14,0,0.29-0.11,0.58-0.24c0.04-0.54,0.13-1.17,0.13-1.79c0.01-5.73,0-11.46,0.01-17.18
		c0-0.79,0.05-1.58,0.08-2.52c0.57-0.06,1.03-0.15,1.48-0.16c10.89-0.22,18.56-0.11,20.65,0.3c0.03,0.5,0.09,1.05,0.1,1.59
		c0.27,20.59,0.13,62.33-0.22,64.62c-0.2,0.07-0.42,0.23-0.64,0.23c-6.86,0.01-13.71,0.01-20.57,0c-0.22,0-0.44-0.15-0.75-0.25
		c-0.28-2.4-0.09-4.81-0.13-7.21c-0.03-2.5,0.02-5-0.02-7.5c-0.04-2.4,0.18-4.8-0.16-7.29c-0.48-0.07-0.86-0.15-1.25-0.17
		C143.96,47.03,131.77,47.15,129.55,47.42z"/>
	<path class="st0" d="M181.94,3.11c2.73-0.37,46.51-0.51,60.06-0.23c0.47,0.01,0.94,0.1,1.48,0.15c0.07,0.45,0.17,0.84,0.19,1.23
		c0.21,5.82,0.08,18.36-0.23,20.45c-0.57,0.06-1.19,0.17-1.8,0.17c-5,0.01-10,0-15.01,0.01c-0.79,0-1.58,0.06-2.48,0.1
		c-0.36,2.6-0.12,5.09-0.17,7.56c-0.04,2.42-0.01,4.84-0.01,7.26c0,2.5,0,5,0,7.5c0,2.42,0,4.84,0,7.26c0,2.5,0,5,0,7.5
		c0,2.41-0.02,4.82-0.02,7.28c-0.43,0.12-0.73,0.27-1.02,0.27c-6.7,0.02-13.39,0.02-20.09,0.01c-0.31,0-0.61-0.1-0.94-0.16
		c-0.41-0.91-0.23-1.81-0.23-2.67c-0.01-12.99-0.01-25.98-0.01-38.97c0-0.87,0.1-1.76-0.19-2.77c-0.63-0.06-1.24-0.18-1.86-0.18
		c-5-0.01-10,0-15.01-0.01c-0.79,0-1.58-0.05-2.5-0.08c-0.34-2.51-0.13-4.92-0.17-7.31c-0.04-2.34-0.01-4.68-0.01-7.02
		C181.93,8.07,181.93,5.66,181.94,3.11z"/>
	<path class="st0" d="M393.53,47.53c0.01,7.48,0.02,14.64-0.01,21.67c-0.78,0.66-1.54,0.45-2.24,0.45
		c-5.73,0.02-11.45,0.01-17.18,0.01c-10.48,0-20.97,0-31.45,0c-0.87,0-1.76,0.1-2.71-0.21c-0.06-0.43-0.14-0.81-0.15-1.19
		c-0.27-8.16-0.1-62.81,0.21-65.16c0.25-0.06,0.54-0.19,0.84-0.19c6.69-0.01,13.39-0.01,20.08-0.01c0.31,0,0.61,0.08,0.98,0.14
		c0.34,0.91,0.2,1.8,0.2,2.67c0.01,12.98,0.01,25.97,0.01,38.95c0,0.87,0.05,1.74,0.08,2.61c0.89,0.42,1.7,0.26,2.48,0.26
		c8.63,0.01,17.26,0.01,25.89,0.01C391.45,47.53,392.32,47.53,393.53,47.53z"/>
</g>
</svg>
