<?xml version="1.0" encoding="utf-8"?>
<!-- Generator: Adobe Illustrator 26.3.0, SVG Export Plug-In . SVG Version: 6.00 Build 0)  -->
<svg version="1.1" id="Capa_1" xmlns="http://www.w3.org/2000/svg" xmlns:xlink="http://www.w3.org/1999/xlink" x="0px" y="0px"
	 viewBox="0 0 500 500" style="enable-background:new 0 0 500 500;" xml:space="preserve">
<style type="text/css">
	.st0{fill:#F5CB5C;}
</style>
<g>
	<path class="st0" d="M424.89,100.09c0.06,0.92,0.17,1.67,0.15,2.41c-0.09,2.83,0.17,5.68-0.54,8.47c-0.05,0.18-0.02,0.38-0.04,0.57
		c-0.21,3.3-0.38,6.6-0.66,9.89c-0.27,3.1-0.66,6.18-0.99,9.27c-0.01,0.09-0.03,0.19-0.03,0.28c-0.22,3.3-0.4,6.59-0.68,9.88
		c-0.26,3.1-0.61,6.19-0.92,9.28c-0.03,0.28-0.1,0.56-0.12,0.84c-0.22,3.2-0.39,6.4-0.66,9.6c-0.28,3.29-0.67,6.56-1,9.84
		c-0.06,0.56-0.04,1.13-0.09,1.7c-0.13,1.41-0.28,2.81-0.42,4.22c-0.06,0.66-0.12,1.32-0.14,1.98c-0.05,1.7-0.01,3.4-0.46,5.07
		c-0.17,0.63-0.07,1.32-0.13,1.98c-0.12,1.31-0.26,2.63-0.4,3.94c-0.05,0.47-0.11,0.94-0.15,1.41c-0.21,2.92-0.34,5.84-0.64,8.75
		c-0.45,4.32-0.9,8.63-1.15,12.96c-0.18,3.1-0.7,6.18-0.98,9.28c-0.28,3.1-0.41,6.21-0.68,9.32c-0.28,3.19-0.65,6.37-0.98,9.56
		c-0.03,0.28-0.07,0.56-0.09,0.85c-0.22,3.3-0.19,6.63-0.73,9.87c-0.53,3.18-0.32,6.4-0.89,9.58c-0.52,2.86-0.46,5.83-0.71,8.74
		c-0.3,3.38-0.66,6.76-0.99,10.13c-0.03,0.28-0.08,0.56-0.09,0.85c-0.22,3.11-0.39,6.22-0.66,9.32c-0.26,2.91-0.66,5.81-0.95,8.72
		c-0.27,2.72-0.38,5.46-0.7,8.18c-0.41,3.47-0.37,6.97-0.99,10.41c-0.03,0.19-0.05,0.37-0.07,0.56c-0.22,3.2-0.4,6.4-0.67,9.6
		c-0.26,3-0.61,6-0.93,9c-0.02,0.19-0.07,0.37-0.09,0.56c-0.23,3.11-0.41,6.22-0.68,9.32c-0.29,3.38-0.65,6.76-0.99,10.13
		c-0.02,0.19-0.07,0.37-0.08,0.56c-0.23,3.2-0.41,6.41-0.69,9.6c-0.24,2.82-0.59,5.62-0.89,8.44c-0.02,0.19-0.08,0.37-0.09,0.56
		c-0.22,2.92-0.4,5.84-0.67,8.75c-0.29,3.19-0.65,6.38-0.97,9.57c-0.02,0.19-0.06,0.37-0.07,0.56c-0.22,3.01-0.41,6.03-0.67,9.04
		c-0.27,3-0.61,6-0.93,9c-0.02,0.19-0.07,0.37-0.09,0.56c-0.23,3.2-0.42,6.41-0.7,9.6c-0.24,2.82-0.58,5.63-0.88,8.44
		c-0.03,0.28-0.11,0.56-0.13,0.84c-0.24,3.2-0.46,6.4-0.72,9.6c-0.15,1.88-0.35,3.76-0.55,5.63c-0.36,3.28-0.75,6.56-1.14,9.92
		c-0.67,0.42-1.27,0.89-1.94,1.19c-1.73,0.76-3.45,1.58-5.25,2.14c-6.32,1.96-12.66,3.85-19.01,5.7
		c-5.99,1.75-11.99,3.45-17.99,5.14c-5.28,1.48-10.56,2.92-15.85,4.38c-5.37,1.48-10.75,2.95-16.12,4.43
		c-5.65,1.56-11.29,3.13-16.94,4.68c-6.1,1.67-12.21,3.33-18.32,4.99c-5.2,1.41-10.4,2.79-15.6,4.19c-2.74,0.74-5.47,1.49-8.21,2.21
		c-2.74,0.73-5.49,1.42-8.22,2.14c-1.04,0.28-2.04,0.18-3.07-0.11c-12.38-3.43-24.77-6.85-37.16-10.27
		c-9.38-2.58-18.78-5.12-28.15-7.73c-10.28-2.87-20.54-5.82-30.83-8.7c-8.64-2.42-17.31-4.77-25.95-7.19
		c-6.1-1.71-12.18-3.47-18.39-5.25c-0.62-1.19-0.87-2.55-0.96-3.97c-0.24-3.86-0.48-7.72-1.09-11.54c-0.01-0.09-0.01-0.19-0.02-0.28
		c-0.22-3.2-0.4-6.4-0.67-9.6c-0.26-3-0.63-6-0.95-8.99c-0.03-0.28-0.08-0.56-0.1-0.84c-0.22-3.3-0.4-6.6-0.68-9.89
		c-0.25-2.91-0.62-5.81-0.95-8.71c-0.02-0.19-0.05-0.37-0.07-0.56c-0.22-3.01-0.4-6.03-0.66-9.03c-0.27-3.01-0.62-6-0.94-9
		c-0.02-0.19-0.06-0.37-0.08-0.56c-0.22-3.01-0.41-6.03-0.67-9.04c-0.26-3-0.61-6-0.92-9c-0.03-0.28-0.09-0.56-0.11-0.84
		c-0.23-3.3-0.41-6.6-0.69-9.89c-0.25-2.91-0.62-5.81-0.94-8.71c-0.02-0.19-0.06-0.37-0.07-0.56c-0.22-3.2-0.41-6.4-0.68-9.6
		c-0.26-3-0.6-6-0.92-9c-0.02-0.19-0.08-0.37-0.1-0.56c-0.22-2.92-0.43-5.83-0.67-8.75c-0.11-1.31-0.27-2.62-0.42-3.93
		c-0.02-0.19-0.07-0.37-0.08-0.56c-0.22-3.11-0.41-6.21-0.67-9.32c-0.27-3.1-0.61-6.19-0.92-9.28c-0.05-0.47-0.12-0.94-0.15-1.41
		c-0.22-2.92-0.38-5.84-0.65-8.75c-0.27-2.91-0.71-5.8-0.97-8.72c-0.29-3.2-0.43-6.4-0.7-9.6c-0.26-3-0.61-6-0.92-9
		c-0.02-0.19-0.08-0.37-0.09-0.56c-0.23-3.01-0.42-6.02-0.69-9.03c-0.29-3.28-0.64-6.56-0.96-9.84c-0.02-0.19-0.06-0.37-0.08-0.56
		c-0.23-3.2-0.41-6.4-0.68-9.6c-0.26-3-0.6-6-0.91-9c-0.02-0.19-0.09-0.37-0.1-0.56c-0.23-3.01-0.42-6.02-0.68-9.03
		c-0.29-3.29-0.64-6.57-0.96-9.85c-0.03-0.28-0.09-0.56-0.11-0.84c-0.21-3.01-0.38-6.03-0.65-9.03c-0.27-3-0.63-6-0.95-9
		c-0.02-0.19-0.06-0.37-0.07-0.56c-0.22-3.3-0.4-6.6-0.68-9.89c-0.25-2.91-0.62-5.81-0.94-8.71c-0.04-0.38-0.1-0.75-0.12-1.13
		c-0.08-1.98-0.24-3.94-0.49-5.92c-0.42-3.36-0.45-6.78-0.73-10.16c-0.26-3.19-0.64-6.37-0.96-9.56c-0.02-0.19-0.06-0.37-0.07-0.56
		c-0.22-3.29-0.4-6.59-0.68-9.88c-0.27-3.19-0.65-6.37-0.97-9.56c-0.07-0.75-0.05-1.51-0.12-2.27c-0.13-1.5-0.34-3-0.44-4.5
		c-0.22-3.2-0.25-6.41-0.09-9.73c0.64-0.15,1.16-0.35,1.69-0.39c0.75-0.06,1.51-0.02,2.27-0.02c113.98,0,227.96,0,341.94,0.01
		C422.17,99.78,423.4,99.61,424.89,100.09z M160.01,397.45c2.11,0.95,4.2,1.53,6.28,2.14c6.53,1.9,13.07,3.79,19.61,5.66
		c3.45,0.99,6.91,1.96,10.37,2.92c5.65,1.56,11.3,3.09,16.94,4.67c4.37,1.22,8.71,2.53,13.09,3.73c6.65,1.83,13.32,3.57,19.97,5.4
		c1.69,0.47,3.33,0.53,5.02,0.07c3.65-0.99,7.31-1.93,10.96-2.89c2.29-0.6,4.58-1.14,6.86-1.77c6.29-1.72,12.57-3.47,18.85-5.22
		c8.56-2.38,17.13-4.7,25.66-7.15c7.36-2.12,14.68-4.36,22-6.6c1.33-0.41,2.7-0.83,3.8-1.64c0.59-1.82,0.82-3.58,0.91-5.39
		c0.13-2.45,0.48-4.88,0.73-7.32c0.31-3,0.64-6,0.93-9c0.26-2.72,0.43-5.45,0.7-8.18c0.29-2.91,0.71-5.8,0.97-8.71
		c0.28-3.1,0.44-6.21,0.66-9.32c0.01-0.19,0.03-0.38,0.05-0.57c0.34-2.9,0.72-5.8,0.99-8.71c0.27-2.91,0.42-5.83,0.64-8.75
		c0.03-0.47,0.15-0.93,0.2-1.4c0.11-0.94,0.25-1.87,0.32-2.81c0.23-3.11,0.44-6.21,0.66-9.32c0.01-0.19,0.06-0.37,0.08-0.56
		c0.14-1.41,0.29-2.81,0.42-4.22c0.06-0.66,0.08-1.32,0.14-1.98c0.14-1.5,0.3-3,0.43-4.5c0.07-0.75,0.07-1.51,0.14-2.26
		c0.13-1.5,0.3-3,0.44-4.5c0.05-0.56,0.06-1.13,0.12-1.7c0.32-3,0.7-5.99,0.98-8.99c0.27-2.91,0.45-5.83,0.67-8.75
		c0.02-0.28,0.1-0.56,0.13-0.84c0.31-2.72,0.66-5.43,0.89-8.15c0.14-1.6,0.08-3.2,0.47-4.78c0.24-0.97,0.39-2.08-0.61-3.01
		c-1.67-0.23-3.43-0.5-5.2-0.71c-0.75-0.09-1.51-0.07-2.27-0.08c-5.68-0.03-11.36-0.07-17.04-0.07
		c-40.23,0.01-80.47,0.02-120.7,0.03c-0.85,0-1.71,0.02-2.56-0.01c-0.55-0.02-1.09-0.13-1.75-0.22c-0.07-0.67-0.22-1.22-0.17-1.75
		c0.3-2.9,0.71-5.8,0.98-8.7c0.28-3.1,0.45-6.21,0.66-9.32c0.01-0.19,0-0.38,0.03-0.57c0.58-3.54,0.86-7.11,1.08-10.69
		c0.02-0.38,0.08-0.75,0.12-1.13c0.33-3.19,0.68-6.37,0.97-9.57c0.25-2.72,0.28-5.48,0.72-8.17c0.31-1.88,0.32-3.76,0.51-5.64
		c0.33-3.28,0.73-6.56,1.08-9.84c0.11-1.04,0.36-2.02,1.03-3.03c1.03-0.03,2.06-0.09,3.08-0.1c2.84-0.04,5.71,0.18,8.51-0.18
		c2.55-0.33,5.09-0.35,7.63-0.39c3.31-0.05,6.63-0.03,9.94-0.09c1.03-0.02,2.06-0.26,3.09-0.29c2.64-0.08,5.32-0.36,7.93-0.05
		c1.88,0.22,3.75,0.37,5.63,0.4c2.84,0.03,5.68,0.02,8.52,0.04c0.76,0,1.55-0.1,2.26,0.09c1.87,0.5,3.76,0.38,5.64,0.4
		c2.56,0.03,5.11,0.04,7.67,0.07c0.76,0.01,1.55-0.06,2.26,0.13c1.49,0.41,3,0.34,4.51,0.38c1.89,0.05,3.81-0.08,5.67,0.21
		c1.51,0.24,3.01,0.26,4.51,0.4c1.97,0.18,3.93,0.47,5.89,0.74c0.25,0.04,0.47,0.29,0.83,0.53c0.27,1.58,0.61,3.23,0.81,4.91
		c0.28,2.34,0.37,4.71,0.69,7.04c0.48,3.46,0.95,6.91,1.09,10.41c0.01,0.28,0.06,0.56,0.09,0.85c0.32,2.71,0.72,5.42,0.94,8.14
		c0.31,3.76,0.48,7.53,0.72,11.3c0.01,0.18,0.13,0.35,0.27,0.71c0.35,0.19,0.82,0.61,1.33,0.68c2.25,0.28,4.5,0.61,6.76,0.63
		c9.94,0.07,19.88,0.03,29.82,0.04c1.8,0,3.6,0.02,5.4-0.02c0.53-0.01,1.06-0.23,1.62-0.36c0-1.25,0.06-2.38-0.01-3.5
		c-0.1-1.5-0.3-3-0.45-4.5c-0.06-0.66-0.09-1.32-0.16-1.98c-0.31-3-0.67-5.99-0.94-9c-0.27-3.01-0.44-6.02-0.66-9.03
		c-0.01-0.19-0.05-0.38-0.07-0.56c-0.15-1.41-0.29-2.81-0.44-4.22c-0.09-0.84-0.16-1.69-0.25-2.53c-0.1-0.94-0.22-1.87-0.29-2.81
		c-0.23-3.1-0.44-6.21-0.67-9.32c-0.01-0.19-0.06-0.37-0.08-0.56c-0.14-1.31-0.28-2.62-0.4-3.94c-0.07-0.75-0.09-1.51-0.16-2.26
		c-0.13-1.41-0.28-2.81-0.42-4.22c-0.06-0.66-0.08-1.32-0.14-1.98c-0.14-1.5-0.29-3-0.43-4.5c-0.08-0.85-0.12-1.7-0.2-2.54
		c-0.11-1.13-0.26-2.25-0.35-3.37c-0.06-0.75-0.02-1.52-0.11-2.27c-0.3-2.62-0.71-5.23-0.94-7.86c-0.29-3.29-0.47-6.59-0.67-9.89
		c-0.07-1.24-0.26-2.42-1.09-3.55c-1.03-0.02-2.06-0.05-3.1-0.06c-3.12-0.01-6.25,0.04-9.37-0.04c-3.1-0.08-6.2-0.41-9.3-0.41
		c-46.77-0.03-93.53-0.04-140.3,0c-3.87,0-7.73,0.35-11.6,0.54c-0.19,0.01-0.38,0.03-0.56,0.06c-0.93,0.18-1.51,0.74-1.72,1.66
		c-0.08,0.37-0.07,0.75-0.1,1.13c-0.23,2.82-0.4,5.65-0.69,8.46c-0.27,2.62-0.72,5.23-0.98,7.85c-0.29,2.91-0.45,5.83-0.67,8.75
		c-0.04,0.47-0.05,0.95-0.1,1.41c-0.32,2.9-0.71,5.8-0.97,8.71c-0.28,3.1-0.45,6.21-0.67,9.32c-0.02,0.28-0.07,0.56-0.09,0.85
		c-0.14,1.41-0.3,2.81-0.42,4.22c-0.23,2.82-0.32,5.66-0.72,8.46c-0.23,1.6-0.34,3.19-0.46,4.79c-0.16,2.26-0.4,4.51-0.63,6.76
		c-0.32,3.19-0.71,6.37-1,9.56c-0.27,3.1-0.45,6.21-0.67,9.32c-0.01,0.19-0.05,0.37-0.07,0.56c-0.33,3.28-0.7,6.56-0.97,9.85
		c-0.27,3.2-0.45,6.4-0.67,9.6c-0.01,0.19-0.06,0.37-0.08,0.56c-0.32,3-0.68,5.99-0.94,8.99c-0.28,3.2-0.45,6.4-0.67,9.6
		c-0.01,0.19-0.05,0.38-0.07,0.56c-0.33,3.19-0.7,6.37-0.97,9.56c-0.28,3.39-0.45,6.78-0.67,10.17c-0.01,0.19-0.01,0.38-0.06,0.56
		c-0.69,2.51-0.4,5.08-0.46,7.62c-0.01,0.51,0.27,1.03,0.46,1.67c1.33,0.01,2.56,0.04,3.78,0.04c47.05,0,94.1,0.01,141.15,0.01
		c0.95,0,1.9-0.04,2.84,0.03c0.53,0.04,1.05,0.25,1.62,0.4c0,0.87,0.05,1.62-0.01,2.36c-0.1,1.12-0.3,2.24-0.43,3.36
		c-0.24,2.06-0.44,4.13-0.67,6.19c-0.33,3-0.72,5.99-0.98,8.99c-0.28,3.2-0.43,6.4-0.65,9.6c-0.03,0.38-0.12,0.75-0.16,1.12
		c-0.12,1.03-0.26,2.06-0.34,3.09c-0.24,2.92-0.43,5.83-0.68,8.75c-0.13,1.5-0.33,3-0.51,4.49c-0.21,1.78-0.39,3.57-0.67,5.33
		c-0.13,0.82-0.49,1.6-0.7,2.26c-4.63,2.21-31.85,9.61-48.38,13.18c-1.2-0.25-2.51-0.48-3.79-0.81c-4.3-1.09-8.61-2.18-12.9-3.33
		c-10.12-2.73-20.24-5.5-30.35-8.27c-0.43-0.12-0.81-0.42-1.31-0.67c-0.47-5.67-0.89-11.31-1.46-16.93
		c-0.58-5.69-0.75-11.44-1.9-17.05c-1.09-0.6-2.15-0.43-3.17-0.44c-7.01-0.01-14.01-0.01-21.02-0.01c-5.68,0-11.36-0.01-17.04,0.01
		c-0.83,0-1.71-0.22-2.42,0.39c-0.07,0.11-0.15,0.19-0.15,0.27c0,3.87-0.12,7.75,0.05,11.61c0.14,3.2,0.65,6.38,0.93,9.57
		c0.26,2.91,0.43,5.83,0.64,8.75c0.01,0.19,0.05,0.37,0.07,0.56c0.33,3.09,0.68,6.18,0.99,9.28c0.25,2.53,0.44,5.08,0.7,7.61
		c0.19,1.88,0.44,3.75,0.67,5.62c0.3,2.34,0.61,4.67,0.92,7.01C158.92,391.66,159.16,394.48,160.01,397.45z"/>
	<path class="st0" d="M312.76,3.02c0.31,1.76,0.5,14.1,0.26,16.55c-0.03,0.35-0.22,0.69-0.36,1.1c-2.29,0.5-4.56,0.21-6.8,0.31
		c-2.36,0.11-4.71,0.29-7.07,0.37c-2.27,0.08-4.54,0.08-6.81,0.11c-2.26,0.03-4.53,0.05-6.77,0.07c-0.21,0.92,0.44,1.33,0.83,1.78
		c1.18,1.35,2.47,2.61,3.69,3.93c3.91,4.24,7.79,8.5,11.71,12.73c1.67,1.8,3.41,3.54,5.08,5.35c2.51,2.7,4.98,5.43,7.41,8.08
		c0.42,2.71,0.37,13.53-0.08,15.73c-0.37,0.14-0.79,0.37-1.24,0.45c-0.55,0.09-1.13,0.06-1.7,0.06c-18.92,0-37.84,0-56.76-0.01
		c-0.92,0-1.9,0.21-2.91-0.48c-0.06-0.32-0.21-0.77-0.23-1.21c-0.24-6.58-0.1-13.95,0.29-16.13c0.69-0.67,1.59-0.45,2.41-0.45
		c5.11-0.02,10.22-0.01,15.33-0.01c0.76,0,1.52,0.02,2.27-0.04c2.81-0.19,5.62-0.41,8.52-0.62c-0.09-0.35-0.07-0.67-0.22-0.86
		c-1.27-1.52-2.54-3.05-3.87-4.53c-5.26-5.82-10.55-11.62-15.83-17.41c-2.68-2.93-5.38-5.84-8.07-8.76
		c-0.25-0.28-0.47-0.58-0.83-1.04c-0.01-4.87-0.02-9.86,0.01-14.86c0.52-0.23,0.84-0.47,1.19-0.5c0.85-0.08,1.7-0.07,2.55-0.07
		c18.26,0,36.52-0.01,54.78,0.01C310.55,2.65,311.61,2.44,312.76,3.02z"/>
	<path class="st0" d="M240.65,2.95c0.42,3.03,0.59,48.97,0.26,64.07c-0.01,0.65-0.12,1.3-0.2,2.04c-0.57,0.19-1.07,0.45-1.6,0.52
		c-0.65,0.09-1.32,0.04-1.98,0.04c-15.89,0-31.78,0.01-47.67-0.01c-1.1,0-2.29,0.28-3.46-0.68c-0.06-0.57-0.19-1.31-0.2-2.04
		c-0.23-11.32-0.11-17.99,0.36-20.17c0.89-0.56,1.96-0.35,2.97-0.35c8.32-0.02,16.65-0.01,24.97-0.01c1.02,0,2.05-0.05,3.21-0.07
		c0.12-0.79,0.3-1.41,0.31-2.04c0.03-3.03,0.02-6.05,0.02-9.08c0-9.65,0-19.29,0.01-28.94c0-1.02-0.21-2.09,0.49-3.22
		c0.29-0.09,0.72-0.34,1.16-0.35c6.72-0.03,13.43-0.02,20.15-0.01C239.81,2.67,240.16,2.83,240.65,2.95z"/>
</g>
</svg>
