<?xml version="1.0" encoding="utf-8"?>
<!-- Generator: Adobe Illustrator 26.3.0, SVG Export Plug-In . SVG Version: 6.00 Build 0)  -->
<svg version="1.1" id="Capa_1" xmlns="http://www.w3.org/2000/svg" xmlns:xlink="http://www.w3.org/1999/xlink" x="0px" y="0px"
	 viewBox="0 0 200 105.53" style="enable-background:new 0 0 200 105.53;" xml:space="preserve">
<style type="text/css">
	.st0{fill:#E8EDDF;}
	.st1{fill:#F5CB5C;}
</style>
<g>
	<path class="st0" d="M49.91,70.4c-3.28,0.11-6.35,0.21-9.53,0.31c-0.04-0.42-0.08-0.77-0.11-1.12c-0.26-2.97-1.6-5.15-4.46-6.32
		c-2.5-1.02-4.34-2.7-4.8-5.51c-0.12-0.7-0.14-1.46-0.01-2.15c0.72-3.73,2.19-7.22,3.73-10.66c1.1-2.45,4-3.66,6.93-3.4
		c0.54,0.05,1.07,0.23,1.6,0.35c3.27,0.73,5.79-0.31,7.81-3c2.34-3.11,4.72-6.19,7.24-9.16c1.33-1.57,2.91-2.94,4.5-4.26
		c2.75-2.29,3.59-5.09,2.58-8.48c-0.23-0.76-0.47-1.51-0.69-2.27c-0.62-2.19-0.08-4.11,1.46-5.71c0.67-0.69,1.43-1.36,2.28-1.79
		c2.65-1.37,5.34-2.65,8.04-3.92c3.68-1.74,7.38,0.08,8.94,2.98c0.63,1.18,1.45,2.22,2.6,3.01c1.93,1.31,4.06,1.35,6.16,0.92
		c5.35-1.1,10.75-1.2,16.17-1.02c0.37,0.01,0.73,0,1.1,0.04c4.14,0.38,6.5-1.85,7.7-4.83c0.96-2.4,2.75-4.07,5.38-4.42
		c1.16-0.16,2.44,0.02,3.57,0.37c2.73,0.85,5.4,1.87,8.1,2.84c3.78,1.36,5.25,4.76,4.34,8.53c-0.96,3.99-0.1,6.4,3.34,8.75
		c4.85,3.31,9.37,6.99,13.08,11.58c2.33,2.88,6.05,3.4,9.07,2.03c3.35-1.52,6.71-0.6,8.63,2.46c2.01,3.2,3.38,6.72,4.57,10.31
		c0.78,2.33-0.71,5.65-2.65,6.9c-0.2,0.13-0.4,0.27-0.61,0.4c-1.99,1.16-3.7,2.57-4.31,5.04c-3.62,0.13-6.87-1.39-10.45-1.49
		c-5.09-14.66-14.51-25.6-28.15-32.71c-10.3-5.36-21.36-7.36-32.93-5.9c-13.25,1.68-24.64,7.2-34.04,16.78
		C56.7,45.43,51.51,56.96,49.91,70.4z"/>
	<path class="st1" d="M0,93.48c1.43-2.73,3.14-5.29,5.29-7.52c6.22-6.46,13.89-10.2,22.64-11.68c3.83-0.64,7.74-0.83,11.62-1.1
		c3.34-0.23,6.69-0.33,10.04-0.39c1.05-0.02,1.67-0.58,2.37-1.17c6.47-5.41,13.4-10.12,20.94-13.91c8.18-4.11,16.76-6.9,25.87-7.92
		c4.12-0.46,8.26-0.56,12.4-0.2c3.27,0.28,6.56,0.46,9.82,0.78c7.03,0.69,13.98,1.92,20.85,3.55c4.79,1.14,9.54,2.47,14.23,3.96
		c2.8,0.89,5.61,1.56,8.49,2.03c1.5,0.24,3.03,0.42,4.48,0.84c1.93,0.56,3.83,0.43,5.77,0.2c5.07-0.62,10.14-1.25,15.22-1.83
		c3.01-0.35,4.63,1.53,3.89,4.46c-0.47,1.88-0.97,3.75-1.47,5.67c4.07,2.93,6.89,6.64,7.46,11.68c0.42,3.68-0.57,7.08-2.76,10.23
		c-0.02-0.31-0.06-0.61-0.06-0.92c-0.01-2.99-1.35-5.37-3.42-7.41c-2.3-2.27-5.16-3.65-8.05-4.93c-8.75-3.86-17.97-4.56-27.37-3.91
		c-2.79,0.19-5.59,0.38-8.38,0.52c-6.08,0.3-12.16,0.56-18.24,0.86c-8.69,0.43-17.38,0.88-26.08,1.31
		c-3.34,0.16-6.69,0.29-10.04,0.41c-8.4,0.31-16.79,0.64-25.19,0.9c-6.94,0.21-13.88,0.4-20.81,0.49
		c-3.96,0.05-7.91-0.22-11.87-0.18c-7.05,0.08-13.96,0.98-20.43,4.03c-5.15,2.43-9.83,5.59-14.26,9.16
		c-0.9,0.72-1.77,1.49-2.65,2.23C0.2,93.64,0.1,93.56,0,93.48z M60.79,69.73c-0.06,2.15,0.34,2.59,2.22,2.58
		c0.24,0,0.49-0.01,0.73-0.02c4.26-0.18,8.51-0.38,12.77-0.54c7.97-0.29,15.94-0.57,23.92-0.78c1.28-0.03,1.98-0.47,2.49-1.64
		c1.92-4.41,3.93-8.78,5.89-13.17c0.2-0.44,0.4-0.9,0.49-1.37c0.15-0.86-0.23-1.41-1.1-1.6c-0.35-0.08-0.73-0.07-1.09-0.06
		c-4.93,0.17-9.84,0.45-14.68,1.57c-8.08,1.87-15.61,5.06-22.79,9.16C66.58,65.6,63.6,67.48,60.79,69.73z M111.14,70.59
		c6.32-0.37,12.58-0.65,18.83-1.14c6-0.47,11.98-1.17,17.96-1.79c2.12-0.22,3.92-1.28,5.7-2.33c1.09-0.64,1.41-2.09,0.65-3
		c-0.44-0.52-1.13-0.93-1.78-1.15c-6.28-2.12-12.63-4.05-19.17-5.19c-5.38-0.94-10.82-1.57-16.24-2.33
		c-2.04-0.28-2.56,0.01-3.41,1.86c-1.04,2.27-2.06,4.54-3.09,6.82c-0.9,2-1.82,3.98-2.68,6c-0.62,1.45-0.11,2.19,1.47,2.25
		C109.99,70.61,110.6,70.59,111.14,70.59z"/>
	<g>
		<path class="st0" d="M20.69,86.69v13.84h13.95v4.58H14.4V86.69H20.69z"/>
		<path class="st0" d="M105.23,86.49v8.9c0,0.77-0.09,1.55-0.28,2.34c-0.19,0.79-0.56,1.64-1.12,2.55c-0.56,0.91-1.27,1.71-2.13,2.4
			c-0.86,0.69-2.05,1.26-3.57,1.73c-1.52,0.46-3.26,0.69-5.22,0.69H49.08c-1.49,0-2.86-0.12-4.09-0.36
			c-1.23-0.24-2.27-0.55-3.12-0.95c-0.85-0.39-1.59-0.87-2.24-1.43c-0.65-0.56-1.16-1.13-1.54-1.7c-0.38-0.57-0.69-1.19-0.93-1.85
			c-0.24-0.66-0.4-1.26-0.49-1.8c-0.08-0.54-0.12-1.08-0.12-1.63v-8.89h6.31v8.55c0,0.66,0.09,1.27,0.28,1.84
			c0.19,0.57,0.51,1.13,0.96,1.68c0.45,0.55,1.14,0.99,2.06,1.31c0.8,0.28,1.73,0.43,2.8,0.47c0.17,0.01,43.2,0.01,43.38,0.01
			c1.28,0,2.37-0.16,3.28-0.48c0.91-0.32,1.59-0.76,2.05-1.31c0.46-0.55,0.78-1.11,0.97-1.68c0.19-0.57,0.28-1.18,0.28-1.84v-8.55
			H105.23z"/>
		<path class="st0" d="M114.21,104.96c-1.49-0.31-2.64-0.69-3.45-1.14c-0.81-0.45-1.45-0.99-1.93-1.62
			c-0.48-0.64-0.78-1.21-0.92-1.72c-0.13-0.51-0.2-1.06-0.2-1.63v-0.27h6.56c0.14,1.95,1.56,2.92,5.39,2.92h1.46
			c1.26,0,1.79-0.05,2.62-0.16c0.83-0.11,1.43-0.26,1.81-0.46c0.38-0.2,0.63-0.4,0.76-0.61c0.13-0.21,0.19-0.45,0.19-0.73
			c0-0.4-0.11-0.71-0.32-0.94c-0.22-0.23-0.72-0.43-1.51-0.61c-0.79-0.17-1.93-0.28-3.43-0.31l-1.98-0.04l-1.48-0.03
			c-6.53-0.16-9.8-1.96-9.8-5.4v-0.22c0-0.59,0.08-1.14,0.24-1.65c0.16-0.5,0.49-1.01,0.97-1.51c0.49-0.5,1.12-0.93,1.9-1.27
			c0.78-0.35,1.84-0.63,3.17-0.85c1.33-0.22,2.88-0.33,4.64-0.33h1.86c1.84,0,3.45,0.12,4.86,0.35c1.4,0.23,2.52,0.53,3.36,0.89
			c0.84,0.36,1.52,0.81,2.05,1.34c0.53,0.53,0.9,1.05,1.09,1.57c0.2,0.52,0.3,1.08,0.3,1.67v0.25h-6.53
			c-0.04-0.2-0.09-0.37-0.15-0.51c-0.06-0.14-0.21-0.33-0.45-0.56c-0.23-0.23-0.54-0.42-0.92-0.57c-0.38-0.15-0.94-0.28-1.69-0.4
			c-0.75-0.12-1.32-0.17-2.31-0.17h-0.94c-1.51,0-2.46,0.09-3.27,0.26c-0.81,0.17-1.3,0.36-1.47,0.54
			c-0.17,0.19-0.26,0.45-0.26,0.78c0,0.31,0.09,0.57,0.28,0.77c0.19,0.2,0.64,0.38,1.35,0.54c0.71,0.17,1.71,0.26,3.01,0.27
			l1.48,0.02l1.9,0.03c3.74,0.07,6.45,0.53,8.11,1.4c1.66,0.87,2.5,2.22,2.5,4.07v0.35c0,0.68-0.08,1.28-0.24,1.82
			s-0.49,1.08-1,1.65c-0.5,0.56-1.17,1.03-2.01,1.41c-0.84,0.38-1.98,0.69-3.43,0.93c-1.45,0.24-3.14,0.36-5.09,0.36h-1.86
			C117.45,105.43,115.7,105.27,114.21,104.96z"/>
		<path class="st0" d="M162.3,105.07h-6.17l-1.72-3.33h-13.12l-1.72,3.33h-6.17l9.78-18.21h9.34L162.3,105.07z M152.3,97.63
			l-3.47-6.69h-1.96l-3.47,6.69H152.3z"/>
		<path class="st0" d="M170.14,86.69v13.84h13.95v4.58h-20.24V86.69H170.14z"/>
		<path class="st0" d="M192.26,105.08h-6.27V86.71h6.27V105.08z"/>
	</g>
</g>
</svg>
